Coordinates
version=1
nRows=14
nColumns=38
inDegrees=no

Units are S.I. units (second, meters, Newtons, ...)
If the header above contains a line with 'inDegrees', this indicates whether rotational values are in degrees (yes) or radians (no).

endheader
time	pelvis_tilt	pelvis_list	pelvis_rotation	pelvis_tx	pelvis_ty	pelvis_tz	hip_flexion_r	hip_adduction_r	hip_rotation_r	knee_angle_r	ankle_angle_r	subtalar_angle_r	mtp_angle_r	hip_flexion_l	hip_adduction_l	hip_rotation_l	knee_angle_l	ankle_angle_l	subtalar_angle_l	mtp_angle_l	lumbar_extension	lumbar_bending	lumbar_rotation	arm_flex_r	arm_add_r	arm_rot_r	elbow_flex_r	pro_sup_r	wrist_flex_r	wrist_dev_r	arm_flex_l	arm_add_l	arm_rot_l	elbow_flex_l	pro_sup_l	wrist_flex_l	wrist_dev_l
20	2.1653	1.55138	-0.698451	0.816264	-0.605427	0.965878	-0.1363	0.0774545	-0.17456	0.263717	0.267971	0	0	0.149182	-0.0765888	-0.145682	0.190077	0.116923	0	0	-0.106974	0.043573	0.163845	0.557772	-0.0758123	0.466861	1.3507	0	0	0	0.851021	-0.114309	0.510396	0.746679	1.5708	0	0
20.01	2.04652	1.55227	-0.580568	0.815894	-0.605028	0.965789	-0.135079	0.0775928	-0.173749	0.26187	0.267173	0	0	0.151289	-0.076824	-0.146159	0.190319	0.12029	0	0	-0.105922	0.0442269	0.162047	0.5643	-0.0779128	0.470064	1.34653	0	0	0	0.851137	-0.112729	0.506651	0.746344	1.5708	0	0
20.02	2.04604	1.55215	-0.581215	0.815581	-0.604832	0.965885	-0.135958	0.0772156	-0.172987	0.260474	0.266472	0	0	0.151047	-0.0766419	-0.147067	0.190629	0.125308	0	0	-0.108301	0.043977	0.160336	0.571682	-0.0801356	0.473492	1.34253	0	0	0	0.852524	-0.111874	0.503856	0.746632	1.5708	0	0
20.03	1.9398	1.55296	-0.47607	0.815157	-0.604427	0.965844	-0.134727	0.0768841	-0.172057	0.259044	0.265796	0	0	0.153018	-0.0765092	-0.147948	0.191449	0.126851	0	0	-0.107756	0.0441943	0.158659	0.577552	-0.0820499	0.475985	1.33803	0	0	0	0.852533	-0.111055	0.501135	0.747359	1.5708	0	0
20.04	1.82878	1.55384	-0.366091	0.814684	-0.604013	0.965801	-0.133208	0.0760965	-0.171448	0.258248	0.265268	0	0	0.154721	-0.075906	-0.148388	0.19141	0.128859	0	0	-0.107417	0.0442055	0.157158	0.58307	-0.0832938	0.477448	1.33367	0	0	0	0.852578	-0.110489	0.499255	0.748711	1.5708	0	0
20.05	1.71734	1.55435	-0.255944	0.814193	-0.603628	0.965781	-0.131696	0.0753065	-0.17048	0.257784	0.264663	0	0	0.156186	-0.0754242	-0.14915	0.191464	0.126438	0	0	-0.10762	0.0443967	0.156115	0.588724	-0.0839574	0.478124	1.3289	0	0	0	0.852994	-0.109869	0.497526	0.750003	1.5708	0	0
20.06	1.60773	1.55485	-0.147451	0.813666	-0.603202	0.965788	-0.130191	0.0741356	-0.169775	0.257595	0.264137	0	0	0.157417	-0.0747895	-0.150615	0.191343	0.125419	0	0	-0.107869	0.044469	0.154838	0.594283	-0.0845808	0.479411	1.32428	0	0	0	0.853706	-0.109712	0.496789	0.750819	1.5708	0	0
20.07	1.46766	1.55501	-0.00775579	0.813057	-0.602681	0.965756	-0.128296	0.0731044	-0.170432	0.257587	0.263695	0	0	0.159262	-0.0740552	-0.151231	0.191365	0.127599	0	0	-0.107445	0.0448643	0.152809	0.599416	-0.0853668	0.481071	1.32028	0	0	0	0.854716	-0.109997	0.497385	0.751019	1.5708	0	0
20.08	1.31402	1.55466	0.14544	0.812469	-0.602132	0.965729	-0.126111	0.0721614	-0.170994	0.257737	0.263191	0	0	0.161386	-0.0736262	-0.152338	0.191653	0.133617	0	0	-0.10664	0.0454656	0.150718	0.60468	-0.0859781	0.483295	1.31548	0	0	0	0.856023	-0.1106	0.49874	0.750583	1.5708	0	0
20.09	1.18395	1.55376	0.275058	0.811864	-0.601592	0.965729	-0.124353	0.0715103	-0.170733	0.257217	0.262315	0	0	0.16315	-0.0734737	-0.153656	0.191845	0.133185	0	0	-0.106078	0.0463593	0.148752	0.610232	-0.0866131	0.48564	1.3107	0	0	0	0.857768	-0.111071	0.499974	0.749561	1.5708	0	0
20.1	1.07528	1.55249	0.38341	0.811217	-0.601034	0.965735	-0.122831	0.0710733	-0.170748	0.256412	0.261234	0	0	0.164546	-0.0732604	-0.154357	0.191014	0.130714	0	0	-0.105507	0.0474978	0.146744	0.616066	-0.0872238	0.488056	1.30566	0	0	0	0.859599	-0.111537	0.501065	0.748327	1.5708	0	0
20.11	0.98556	1.55106	0.472925	0.810536	-0.600455	0.965763	-0.121518	0.0706303	-0.171155	0.255498	0.260114	0	0	0.165491	-0.0728531	-0.15449	0.189011	0.128863	0	0	-0.105018	0.0486549	0.144973	0.621661	-0.0878764	0.490132	1.30146	0	0	0	0.861682	-0.11189	0.503042	0.746699	1.5708	0	0
20.12	0.916278	1.54956	0.54194	0.809847	-0.599871	0.965841	-0.120574	0.0701526	-0.17132	0.254324	0.258915	0	0	0.166338	-0.0726261	-0.155342	0.187607	0.130967	0	0	-0.104747	0.0497992	0.143752	0.626689	-0.0884609	0.491229	1.29826	0	0	0	0.864047	-0.112117	0.506736	0.744621	1.5708	0	0
20.13	0.854579	1.54757	0.603604	0.809117	-0.599276	0.965906	-0.119457	0.0699494	-0.171527	0.253091	0.257754	0	0	0.168054	-0.0727991	-0.1565	0.187441	0.136231	0	0	-0.103894	0.0514273	0.142397	0.631257	-0.0895501	0.49281	1.29529	0	0	0	0.866112	-0.112315	0.510815	0.742449	1.5708	0	0
